<svg width="98" height="24" viewBox="0 0 98 24" fill="none" xmlns="http://www.w3.org/2000/svg">
<path d="M6 6L10 9L6 12M12 12H16M4 23H22C22.7957 23 23.5587 22.6839 24.1213 22.1213C24.6839 21.5587 25 20.7957 25 20V4C25 3.20435 24.6839 2.44129 24.1213 1.87868C23.5587 1.31607 22.7957 1 22 1H4C3.20435 1 2.44129 1.31607 1.87868 1.87868C1.31607 2.44129 1 3.20435 1 4V20C1 20.7957 1.31607 21.5587 1.87868 22.1213C2.44129 22.6839 3.20435 23 4 23Z" stroke="#38BDF8" stroke-width="1.5" stroke-linecap="round" stroke-linejoin="round"/>
<path d="M38.4347 20V5.45454H41.0057V10.8949H41.1122C41.2448 10.6297 41.4318 10.348 41.6733 10.0497C41.9148 9.74668 42.2415 9.48863 42.6534 9.27557C43.0653 9.05776 43.5909 8.94886 44.2301 8.94886C45.0729 8.94886 45.8329 9.1643 46.5099 9.59517C47.1918 10.0213 47.7315 10.6534 48.1293 11.4915C48.5317 12.3248 48.733 13.3475 48.733 14.5597C48.733 15.7576 48.5365 16.7756 48.1435 17.6136C47.7505 18.4517 47.2154 19.0909 46.5384 19.5312C45.8613 19.9716 45.0942 20.1918 44.2372 20.1918C43.6122 20.1918 43.0938 20.0876 42.6818 19.8793C42.2699 19.6709 41.9384 19.42 41.6875 19.1264C41.4413 18.8281 41.2495 18.5464 41.1122 18.2812H40.9631V20H38.4347ZM40.956 14.5455C40.956 15.2509 41.0554 15.8688 41.2543 16.3991C41.4579 16.9295 41.7491 17.3437 42.1278 17.642C42.5114 17.9356 42.9754 18.0824 43.5199 18.0824C44.0881 18.0824 44.5639 17.9309 44.9474 17.6278C45.331 17.3201 45.6198 16.901 45.8139 16.3707C46.0128 15.8357 46.1122 15.2273 46.1122 14.5455C46.1122 13.8684 46.0152 13.267 45.821 12.7415C45.6269 12.2159 45.3381 11.804 44.9545 11.5057C44.571 11.2074 44.0928 11.0582 43.5199 11.0582C42.9706 11.0582 42.5043 11.2027 42.1207 11.4915C41.7372 11.7803 41.446 12.1851 41.2472 12.706C41.053 13.2268 40.956 13.84 40.956 14.5455Z" fill="black"/>
<path d="M55.9613 20H51.0323V5.45454H56.0607C57.5049 5.45454 58.7454 5.74574 59.7823 6.32812C60.824 6.90577 61.6242 7.73674 62.1829 8.82102C62.7416 9.9053 63.021 11.2027 63.021 12.7131C63.021 14.2282 62.7392 15.5303 62.1758 16.6193C61.6171 17.7083 60.8098 18.544 59.7539 19.1264C58.7028 19.7088 57.4386 20 55.9613 20ZM53.6673 17.7202H55.8335C56.8467 17.7202 57.6919 17.5355 58.369 17.1662C59.046 16.7921 59.555 16.2358 59.896 15.4972C60.2369 14.7538 60.4073 13.8258 60.4073 12.7131C60.4073 11.6004 60.2369 10.6771 59.896 9.94318C59.555 9.20454 59.0508 8.65293 58.3832 8.28835C57.7203 7.91903 56.8964 7.73437 55.9116 7.73437H53.6673V17.7202Z" fill="black"/>
<path d="M70.1694 20.2131C69.1041 20.2131 68.1808 19.9787 67.3995 19.5099C66.6183 19.0412 66.0122 18.3854 65.5813 17.5426C65.1552 16.6998 64.9421 15.715 64.9421 14.5881C64.9421 13.4612 65.1552 12.474 65.5813 11.6264C66.0122 10.7789 66.6183 10.1207 67.3995 9.65199C68.1808 9.18324 69.1041 8.94886 70.1694 8.94886C71.2347 8.94886 72.158 9.18324 72.9393 9.65199C73.7205 10.1207 74.3242 10.7789 74.7504 11.6264C75.1812 12.474 75.3967 13.4612 75.3967 14.5881C75.3967 15.715 75.1812 16.6998 74.7504 17.5426C74.3242 18.3854 73.7205 19.0412 72.9393 19.5099C72.158 19.9787 71.2347 20.2131 70.1694 20.2131ZM70.1836 18.1534C70.7612 18.1534 71.2442 17.9948 71.6325 17.6776C72.0207 17.3556 72.3095 16.9247 72.4989 16.3849C72.6931 15.8452 72.7901 15.2438 72.7901 14.581C72.7901 13.9134 72.6931 13.3097 72.4989 12.7699C72.3095 12.2254 72.0207 11.7921 71.6325 11.4702C71.2442 11.1482 70.7612 10.9872 70.1836 10.9872C69.5917 10.9872 69.0993 11.1482 68.7063 11.4702C68.3181 11.7921 68.0269 12.2254 67.8327 12.7699C67.6434 13.3097 67.5487 13.9134 67.5487 14.581C67.5487 15.2438 67.6434 15.8452 67.8327 16.3849C68.0269 16.9247 68.3181 17.3556 68.7063 17.6776C69.0993 17.9948 69.5917 18.1534 70.1836 18.1534Z" fill="black"/>
<path d="M82.3374 20.2131C81.2483 20.2131 80.3132 19.974 79.532 19.4957C78.7554 19.0175 78.1565 18.357 77.7351 17.5142C77.3184 16.6667 77.1101 15.6913 77.1101 14.5881C77.1101 13.4801 77.3232 12.5024 77.7493 11.6548C78.1754 10.8026 78.7768 10.1397 79.5533 9.66619C80.3345 9.18797 81.2578 8.94886 82.3232 8.94886C83.2086 8.94886 83.9922 9.11221 84.674 9.43892C85.3606 9.76089 85.9074 10.2178 86.3146 10.8097C86.7218 11.3968 86.9538 12.0833 87.0107 12.8693H84.5533C84.4538 12.3437 84.2171 11.9058 83.843 11.5554C83.4737 11.2003 82.9789 11.0227 82.3587 11.0227C81.8331 11.0227 81.3715 11.1648 80.9737 11.4489C80.576 11.7282 80.2659 12.1307 80.0433 12.6562C79.8255 13.1818 79.7166 13.8116 79.7166 14.5455C79.7166 15.2888 79.8255 15.928 80.0433 16.4631C80.2611 16.9934 80.5665 17.4029 80.9595 17.6918C81.3572 17.9759 81.8236 18.1179 82.3587 18.1179C82.7375 18.1179 83.076 18.0469 83.3743 17.9048C83.6773 17.758 83.9306 17.5473 84.1342 17.2727C84.3378 16.9981 84.4775 16.6643 84.5533 16.2713H87.0107C86.9491 17.0431 86.7218 17.7273 86.3288 18.3239C85.9358 18.9157 85.4008 19.3797 84.7237 19.7159C84.0466 20.0473 83.2512 20.2131 82.3374 20.2131Z" fill="black"/>
<path d="M97.744 11.9744L95.4002 12.2301C95.3339 11.9934 95.2179 11.7708 95.0522 11.5625C94.8912 11.3542 94.6734 11.1861 94.3988 11.0582C94.1242 10.9304 93.788 10.8665 93.3903 10.8665C92.8552 10.8665 92.4054 10.9825 92.0408 11.2145C91.681 11.4465 91.5034 11.7472 91.5082 12.1165C91.5034 12.4337 91.6194 12.6918 91.8562 12.8906C92.0977 13.0895 92.4954 13.2528 93.0494 13.3807L94.9102 13.7784C95.9424 14.0009 96.7094 14.3537 97.2113 14.8366C97.7179 15.3196 97.9736 15.9517 97.9783 16.733C97.9736 17.4195 97.7724 18.0256 97.3746 18.5511C96.9817 19.072 96.4348 19.4792 95.734 19.7727C95.0333 20.0663 94.2283 20.2131 93.3193 20.2131C91.984 20.2131 90.9092 19.9337 90.0948 19.375C89.2804 18.8116 88.7951 18.0279 88.6389 17.0241L91.146 16.7827C91.2596 17.2751 91.5011 17.6468 91.8704 17.8977C92.2397 18.1487 92.7203 18.2741 93.3121 18.2741C93.9229 18.2741 94.413 18.1487 94.7823 17.8977C95.1564 17.6468 95.3434 17.3366 95.3434 16.9673C95.3434 16.6548 95.2227 16.3968 94.9812 16.1932C94.7444 15.9896 94.3751 15.8333 93.8732 15.7244L92.0124 15.3338C90.966 15.116 90.1919 14.7491 89.69 14.233C89.1881 13.7121 88.9395 13.054 88.9442 12.2585C88.9395 11.5862 89.1218 11.0038 89.4911 10.5114C89.8652 10.0142 90.3836 9.63068 91.0465 9.36079C91.7141 9.08617 92.4836 8.94886 93.3548 8.94886C94.6332 8.94886 95.6393 9.22112 96.3732 9.76562C97.1119 10.3101 97.5688 11.0464 97.744 11.9744Z" fill="black"/>
</svg>
